<?xml version="1.0" encoding="utf-8"?>
<!-- Generator: Adobe Illustrator 21.1.0, SVG Export Plug-In . SVG Version: 6.00 Build 0)  -->
<svg version="1.1" id="图层_1" xmlns="http://www.w3.org/2000/svg" xmlns:xlink="http://www.w3.org/1999/xlink" x="0px" y="0px"
	 viewBox="0 0 154.9 34" style="enable-background:new 0 0 154.9 34;" xml:space="preserve">
<style type="text/css">
	.st0{fill:#4D9CD6;}
	.st1{fill:#FFFFFF;}
</style>
<g>
	<g>
		<path class="st0" d="M16.7,2.5c7.2,0,13.1,5.3,14.2,12.1h5.5C35.2,6.4,28.2,0,19.6,0c-7,0-13,4.2-15.6,10.3
			C6.3,5.6,11.2,2.5,16.7,2.5z"/>
	</g>
	<g>
		<path class="st0" d="M23.1,31.2c-6.5,0-12.1-4.4-13.8-10.4H3.7C5.5,28.4,12.2,34,20.3,34c7.7,0,14.2-5.1,16.3-12.1
			C34.5,27.3,29.3,31.2,23.1,31.2z"/>
	</g>
	<g>
		<path class="st0" d="M13,17.6l3.5,7.8l0.1,0h3.9l2.7-6.1l2.7,6.1h6l4.3-9.6h-5.2l-2.6,5.9l-3.1-6.9h0l0,0h-3.3l-3.1,6.9L17,17.7
			l-2.3-5.6l0,0c-0.1-0.3-0.2-0.6-0.2-1c0-1.8,1.7-3.7,3.7-4.1c2-0.5,3.7,0.6,3.7,2.4c0,1.8-1.7,3.7-3.7,4.1c-1,0.2-1.9,0.1-2.5-0.3
			l0.3,0.4c1.1,1.3,3.8,2.6,6.4,0.5c0.6-0.5,1.2-1.2,1.7-2c3.3-5.7-3.1-9.8-7.5-7.6c-2.1,1-3.8,3.3-4.5,6.4h0
			c-0.1,0.3-0.2,0.7-0.4,1c-0.7,2-2.1,3.6-4.7,4.7c-5.3,2.3-7.2-4.2-2.2-3.7c2.1,0.2,1.3,1,2.4-1.4c-5.7-2.5-9.8,3.5-5.5,6.6
			C4.6,20.3,10,19.2,13,17.6z"/>
	</g>
	<g>
		<circle class="st0" cx="16.2" cy="10.3" r="0.8"/>
	</g>
</g>
<g>
	<path class="st1" d="M46.2,10.5l-1.7,0.3l2.2,9.3l0.3,2.1l0.1,0l0.5-2.1L50.6,9h2l3.1,11.1l0.5,2.2h0.1l0.3-2.2l2.1-9.3L57,10.5V9
		h5.4v1.5L61,10.7L57.3,26h-2l-3.3-11.7l-0.3-1.5h-0.1l-0.3,1.5L47.9,26h-2l-3.7-15.3l-1.4-0.2V9h5.4V10.5z"/>
	<path class="st1" d="M71.6,26c-0.1-0.3-0.1-0.6-0.2-0.9c0-0.3-0.1-0.5-0.1-0.8c-0.4,0.6-1,1-1.7,1.4c-0.7,0.4-1.4,0.6-2.1,0.6
		c-1.3,0-2.3-0.3-3-1c-0.7-0.6-1-1.5-1-2.7c0-1.2,0.5-2.1,1.4-2.8c1-0.6,2.3-1,4-1h2.4v-1.5c0-0.7-0.2-1.3-0.7-1.7
		c-0.5-0.4-1.1-0.6-1.9-0.6c-0.6,0-1.1,0.1-1.5,0.2c-0.4,0.1-0.8,0.3-1.1,0.6l-0.2,1.3h-1.8v-2.4c0.6-0.5,1.3-0.8,2.1-1.1
		c0.8-0.3,1.7-0.4,2.6-0.4c1.4,0,2.6,0.4,3.5,1.1c0.9,0.7,1.3,1.8,1.3,3.1v6.1c0,0.2,0,0.3,0,0.5c0,0.2,0,0.3,0,0.5l0.9,0.1V26H71.6
		z M67.9,24.3c0.8,0,1.5-0.2,2.1-0.5c0.6-0.4,1.1-0.8,1.3-1.3v-2.1h-2.4c-0.9,0-1.7,0.2-2.2,0.7c-0.5,0.4-0.8,1-0.8,1.6
		c0,0.6,0.2,1,0.5,1.3C66.7,24.1,67.2,24.3,67.9,24.3z"/>
	<path class="st1" d="M76.1,24.5l1.9-0.3v-9l-1.9-0.3v-1.5h3.9l0.2,1.9c0.4-0.7,0.9-1.2,1.6-1.6c0.6-0.4,1.4-0.6,2.2-0.6
		c1.4,0,2.4,0.4,3.1,1.2c0.7,0.8,1.1,2,1.1,3.7v6.1l1.9,0.3V26H84v-1.5l1.9-0.3v-6.1c0-1.1-0.2-1.9-0.7-2.4c-0.4-0.5-1.1-0.7-2-0.7
		c-0.7,0-1.2,0.2-1.7,0.5c-0.5,0.3-0.9,0.8-1.2,1.3v7.4l1.9,0.3V26h-6.1V24.5z"/>
	<path class="st1" d="M103.8,14h-1.7l-0.4-2.4c-0.3-0.3-0.8-0.5-1.4-0.7c-0.6-0.2-1.3-0.3-2-0.3c-1.2,0-2.2,0.3-2.8,0.8
		c-0.7,0.5-1,1.2-1,2c0,0.7,0.3,1.4,1,1.8c0.7,0.5,1.7,0.9,3.2,1.3c1.8,0.4,3.1,1.1,4.1,2c0.9,0.9,1.4,1.9,1.4,3.2
		c0,1.4-0.6,2.5-1.7,3.3c-1.1,0.8-2.6,1.2-4.4,1.2c-1.3,0-2.5-0.2-3.5-0.6c-1-0.4-1.8-1-2.5-1.7v-3.1h1.7l0.4,2.4
		c0.4,0.4,1,0.7,1.6,0.9c0.6,0.2,1.3,0.3,2.2,0.3c1.2,0,2.1-0.2,2.7-0.7c0.7-0.5,1-1.2,1-2c0-0.8-0.3-1.4-0.9-1.9
		c-0.6-0.5-1.6-1-3.1-1.3c-1.8-0.4-3.2-1.1-4.2-1.9c-1-0.8-1.5-1.9-1.5-3.1c0-1.3,0.6-2.4,1.7-3.3c1.1-0.9,2.6-1.3,4.4-1.3
		c1.2,0,2.3,0.2,3.2,0.6c1,0.4,1.8,0.9,2.3,1.5V14z"/>
	<path class="st1" d="M105.9,24.5l1.9-0.3V9.6l-1.9-0.3V7.8h4.2V15c0.4-0.6,1-1.1,1.6-1.4c0.6-0.3,1.3-0.5,2.1-0.5
		c1.3,0,2.4,0.4,3.1,1.2c0.7,0.8,1.1,2,1.1,3.7v6.1l1.9,0.3V26h-6.1v-1.5l1.9-0.3V18c0-1-0.2-1.8-0.7-2.3c-0.4-0.5-1.1-0.7-2-0.7
		c-0.6,0-1.2,0.1-1.7,0.4c-0.5,0.3-0.9,0.7-1.3,1.2v7.5l1.9,0.3V26h-6.1V24.5z"/>
	<path class="st1" d="M129.8,26c-0.1-0.3-0.1-0.6-0.2-0.9c0-0.3-0.1-0.5-0.1-0.8c-0.4,0.6-1,1-1.7,1.4c-0.7,0.4-1.4,0.6-2.1,0.6
		c-1.3,0-2.3-0.3-3-1c-0.7-0.6-1-1.5-1-2.7c0-1.2,0.5-2.1,1.4-2.8c1-0.6,2.3-1,4-1h2.4v-1.5c0-0.7-0.2-1.3-0.7-1.7
		c-0.5-0.4-1.1-0.6-1.9-0.6c-0.6,0-1.1,0.1-1.5,0.2c-0.4,0.1-0.8,0.3-1.1,0.6l-0.2,1.3h-1.8v-2.4c0.6-0.5,1.3-0.8,2.1-1.1
		c0.8-0.3,1.7-0.4,2.6-0.4c1.4,0,2.6,0.4,3.5,1.1c0.9,0.7,1.3,1.8,1.3,3.1v6.1c0,0.2,0,0.3,0,0.5c0,0.2,0,0.3,0,0.5l0.9,0.1V26
		H129.8z M126.1,24.3c0.8,0,1.5-0.2,2.1-0.5c0.6-0.4,1.1-0.8,1.3-1.3v-2.1h-2.4c-0.9,0-1.7,0.2-2.2,0.7c-0.5,0.4-0.8,1-0.8,1.6
		c0,0.6,0.2,1,0.5,1.3C124.9,24.1,125.5,24.3,126.1,24.3z"/>
	<path class="st1" d="M134.7,14.9v-1.5h3.9l0.2,1.8c0.4-0.6,0.8-1.1,1.3-1.5c0.5-0.4,1.1-0.5,1.8-0.5c0.2,0,0.4,0,0.6,0
		c0.2,0,0.3,0.1,0.4,0.1l-0.3,2.1l-1.3-0.1c-0.6,0-1.1,0.1-1.5,0.4c-0.4,0.3-0.7,0.7-1,1.2v7.2l1.9,0.3V26h-6.1v-1.5l1.9-0.3v-9
		L134.7,14.9z"/>
	<path class="st1" d="M150.1,26.2c-1.8,0-3.1-0.6-4.2-1.7c-1-1.2-1.6-2.7-1.6-4.5v-0.5c0-1.8,0.5-3.3,1.6-4.5
		c1.1-1.2,2.3-1.8,3.8-1.8c1.7,0,3,0.5,3.8,1.5c0.9,1,1.3,2.4,1.3,4.1v1.4h-8.2l0,0.1c0,1.2,0.3,2.2,0.9,3c0.6,0.8,1.4,1.2,2.5,1.2
		c0.8,0,1.5-0.1,2-0.3c0.6-0.2,1.1-0.5,1.5-0.9l0.9,1.5c-0.4,0.4-1,0.8-1.8,1.1C152,26,151.1,26.2,150.1,26.2z M149.8,14.9
		c-0.8,0-1.4,0.3-2,1c-0.5,0.6-0.9,1.5-1,2.4l0,0.1h5.8v-0.3c0-0.9-0.2-1.7-0.7-2.3C151.4,15.2,150.7,14.9,149.8,14.9z"/>
</g>
</svg>
